<svg width="192" height="235" viewBox="0 0 192 235" fill="none" xmlns="http://www.w3.org/2000/svg">
<path d="M4.39031 8.82223C6.81501 8.82223 8.78062 6.84731 8.78062 4.41112C8.78062 1.97492 6.81501 0 4.39031 0C1.96561 0 0 1.97492 0 4.41112C0 6.84731 1.96561 8.82223 4.39031 8.82223Z" fill="#DB2E2A" fill-opacity="0.5"/>
<path d="M20.9616 8.82223C23.3863 8.82223 25.3519 6.84731 25.3519 4.41112C25.3519 1.97492 23.3863 0 20.9616 0C18.5369 0 16.5713 1.97492 16.5713 4.41112C16.5713 6.84731 18.5369 8.82223 20.9616 8.82223Z" fill="#DB2E2A" fill-opacity="0.5"/>
<path d="M37.5114 8.82223C39.9361 8.82223 41.9017 6.84731 41.9017 4.41112C41.9017 1.97492 39.9361 0 37.5114 0C35.0867 0 33.1211 1.97492 33.1211 4.41112C33.1211 6.84731 35.0867 8.82223 37.5114 8.82223Z" fill="#DB2E2A" fill-opacity="0.5"/>
<path d="M54.0827 8.82223C56.5074 8.82223 58.473 6.84731 58.473 4.41112C58.473 1.97492 56.5074 0 54.0827 0C51.658 0 49.6924 1.97492 49.6924 4.41112C49.6924 6.84731 51.658 8.82223 54.0827 8.82223Z" fill="#DB2E2A" fill-opacity="0.5"/>
<path d="M70.654 8.82223C73.0787 8.82223 75.0443 6.84731 75.0443 4.41112C75.0443 1.97492 73.0787 0 70.654 0C68.2293 0 66.2637 1.97492 66.2637 4.41112C66.2637 6.84731 68.2293 8.82223 70.654 8.82223Z" fill="#DB2E2A" fill-opacity="0.5"/>
<path d="M87.225 8.82223C89.6497 8.82223 91.6153 6.84731 91.6153 4.41112C91.6153 1.97492 89.6497 0 87.225 0C84.8003 0 82.8347 1.97492 82.8347 4.41112C82.8347 6.84731 84.8003 8.82223 87.225 8.82223Z" fill="#DB2E2A" fill-opacity="0.5"/>
<path d="M103.796 8.82223C106.221 8.82223 108.187 6.84731 108.187 4.41112C108.187 1.97492 106.221 0 103.796 0C101.372 0 99.406 1.97492 99.406 4.41112C99.406 6.84731 101.372 8.82223 103.796 8.82223Z" fill="#DB2E2A" fill-opacity="0.5"/>
<path d="M120.346 8.82223C122.771 8.82223 124.736 6.84731 124.736 4.41112C124.736 1.97492 122.771 0 120.346 0C117.921 0 115.956 1.97492 115.956 4.41112C115.956 6.84731 117.921 8.82223 120.346 8.82223Z" fill="#DB2E2A" fill-opacity="0.5"/>
<path d="M136.917 8.82223C139.342 8.82223 141.308 6.84731 141.308 4.41112C141.308 1.97492 139.342 0 136.917 0C134.493 0 132.527 1.97492 132.527 4.41112C132.527 6.84731 134.493 8.82223 136.917 8.82223Z" fill="#DB2E2A" fill-opacity="0.5"/>
<path d="M153.489 8.82223C155.913 8.82223 157.879 6.84731 157.879 4.41112C157.879 1.97492 155.913 0 153.489 0C151.064 0 149.098 1.97492 149.098 4.41112C149.098 6.84731 151.064 8.82223 153.489 8.82223Z" fill="#DB2E2A" fill-opacity="0.5"/>
<path d="M170.06 8.82223C172.485 8.82223 174.45 6.84731 174.45 4.41112C174.45 1.97492 172.485 0 170.06 0C167.635 0 165.67 1.97492 165.67 4.41112C165.67 6.84731 167.635 8.82223 170.06 8.82223Z" fill="#DB2E2A" fill-opacity="0.5"/>
<path d="M186.631 8.82223C189.056 8.82223 191.022 6.84731 191.022 4.41112C191.022 1.97492 189.056 0 186.631 0C184.207 0 182.241 1.97492 182.241 4.41112C182.241 6.84731 184.207 8.82223 186.631 8.82223Z" fill="#DB2E2A" fill-opacity="0.5"/>
<path d="M4.39031 24.9747C6.81501 24.9747 8.78062 22.9998 8.78062 20.5636C8.78062 18.1274 6.81501 16.1525 4.39031 16.1525C1.96561 16.1525 0 18.1274 0 20.5636C0 22.9998 1.96561 24.9747 4.39031 24.9747Z" fill="#DB2E2A" fill-opacity="0.5"/>
<path d="M20.9616 24.9747C23.3863 24.9747 25.3519 22.9998 25.3519 20.5636C25.3519 18.1274 23.3863 16.1525 20.9616 16.1525C18.5369 16.1525 16.5713 18.1274 16.5713 20.5636C16.5713 22.9998 18.5369 24.9747 20.9616 24.9747Z" fill="#DB2E2A" fill-opacity="0.5"/>
<path d="M37.5114 24.9747C39.9361 24.9747 41.9017 22.9998 41.9017 20.5636C41.9017 18.1274 39.9361 16.1525 37.5114 16.1525C35.0867 16.1525 33.1211 18.1274 33.1211 20.5636C33.1211 22.9998 35.0867 24.9747 37.5114 24.9747Z" fill="#DB2E2A" fill-opacity="0.5"/>
<path d="M54.0827 24.9747C56.5074 24.9747 58.473 22.9998 58.473 20.5636C58.473 18.1274 56.5074 16.1525 54.0827 16.1525C51.658 16.1525 49.6924 18.1274 49.6924 20.5636C49.6924 22.9998 51.658 24.9747 54.0827 24.9747Z" fill="#DB2E2A" fill-opacity="0.5"/>
<path d="M70.654 24.9747C73.0787 24.9747 75.0443 22.9998 75.0443 20.5636C75.0443 18.1274 73.0787 16.1525 70.654 16.1525C68.2293 16.1525 66.2637 18.1274 66.2637 20.5636C66.2637 22.9998 68.2293 24.9747 70.654 24.9747Z" fill="#DB2E2A" fill-opacity="0.5"/>
<path d="M87.225 24.9747C89.6497 24.9747 91.6153 22.9998 91.6153 20.5636C91.6153 18.1274 89.6497 16.1525 87.225 16.1525C84.8003 16.1525 82.8347 18.1274 82.8347 20.5636C82.8347 22.9998 84.8003 24.9747 87.225 24.9747Z" fill="#DB2E2A" fill-opacity="0.5"/>
<path d="M103.796 24.9747C106.221 24.9747 108.187 22.9998 108.187 20.5636C108.187 18.1274 106.221 16.1525 103.796 16.1525C101.372 16.1525 99.406 18.1274 99.406 20.5636C99.406 22.9998 101.372 24.9747 103.796 24.9747Z" fill="#DB2E2A" fill-opacity="0.5"/>
<path d="M120.346 24.9747C122.771 24.9747 124.736 22.9998 124.736 20.5636C124.736 18.1274 122.771 16.1525 120.346 16.1525C117.921 16.1525 115.956 18.1274 115.956 20.5636C115.956 22.9998 117.921 24.9747 120.346 24.9747Z" fill="#DB2E2A" fill-opacity="0.5"/>
<path d="M136.917 24.9747C139.342 24.9747 141.308 22.9998 141.308 20.5636C141.308 18.1274 139.342 16.1525 136.917 16.1525C134.493 16.1525 132.527 18.1274 132.527 20.5636C132.527 22.9998 134.493 24.9747 136.917 24.9747Z" fill="#DB2E2A" fill-opacity="0.5"/>
<path d="M153.489 24.9747C155.913 24.9747 157.879 22.9998 157.879 20.5636C157.879 18.1274 155.913 16.1525 153.489 16.1525C151.064 16.1525 149.098 18.1274 149.098 20.5636C149.098 22.9998 151.064 24.9747 153.489 24.9747Z" fill="#DB2E2A" fill-opacity="0.5"/>
<path d="M170.06 24.9747C172.485 24.9747 174.45 22.9998 174.45 20.5636C174.45 18.1274 172.485 16.1525 170.06 16.1525C167.635 16.1525 165.67 18.1274 165.67 20.5636C165.67 22.9998 167.635 24.9747 170.06 24.9747Z" fill="#DB2E2A" fill-opacity="0.5"/>
<path d="M186.631 24.9747C189.056 24.9747 191.022 22.9998 191.022 20.5636C191.022 18.1274 189.056 16.1525 186.631 16.1525C184.207 16.1525 182.241 18.1274 182.241 20.5636C182.241 22.9998 184.207 24.9747 186.631 24.9747Z" fill="#DB2E2A" fill-opacity="0.5"/>
<path d="M4.39031 41.1272C6.81501 41.1272 8.78062 39.1522 8.78062 36.716C8.78062 34.2799 6.81501 32.3049 4.39031 32.3049C1.96561 32.3049 0 34.2799 0 36.716C0 39.1522 1.96561 41.1272 4.39031 41.1272Z" fill="#DB2E2A" fill-opacity="0.5"/>
<path d="M20.9616 41.1272C23.3863 41.1272 25.3519 39.1522 25.3519 36.716C25.3519 34.2799 23.3863 32.3049 20.9616 32.3049C18.5369 32.3049 16.5713 34.2799 16.5713 36.716C16.5713 39.1522 18.5369 41.1272 20.9616 41.1272Z" fill="#DB2E2A" fill-opacity="0.5"/>
<path d="M37.5114 41.1272C39.9361 41.1272 41.9017 39.1522 41.9017 36.716C41.9017 34.2799 39.9361 32.3049 37.5114 32.3049C35.0867 32.3049 33.1211 34.2799 33.1211 36.716C33.1211 39.1522 35.0867 41.1272 37.5114 41.1272Z" fill="#DB2E2A" fill-opacity="0.5"/>
<path d="M54.0827 41.1272C56.5074 41.1272 58.473 39.1522 58.473 36.716C58.473 34.2799 56.5074 32.3049 54.0827 32.3049C51.658 32.3049 49.6924 34.2799 49.6924 36.716C49.6924 39.1522 51.658 41.1272 54.0827 41.1272Z" fill="#DB2E2A" fill-opacity="0.5"/>
<path d="M70.654 41.1272C73.0787 41.1272 75.0443 39.1522 75.0443 36.716C75.0443 34.2799 73.0787 32.3049 70.654 32.3049C68.2293 32.3049 66.2637 34.2799 66.2637 36.716C66.2637 39.1522 68.2293 41.1272 70.654 41.1272Z" fill="#DB2E2A" fill-opacity="0.5"/>
<path d="M87.225 41.1272C89.6497 41.1272 91.6153 39.1522 91.6153 36.716C91.6153 34.2799 89.6497 32.3049 87.225 32.3049C84.8003 32.3049 82.8347 34.2799 82.8347 36.716C82.8347 39.1522 84.8003 41.1272 87.225 41.1272Z" fill="#DB2E2A" fill-opacity="0.5"/>
<path d="M103.796 41.1272C106.221 41.1272 108.187 39.1522 108.187 36.716C108.187 34.2799 106.221 32.3049 103.796 32.3049C101.372 32.3049 99.406 34.2799 99.406 36.716C99.406 39.1522 101.372 41.1272 103.796 41.1272Z" fill="#DB2E2A" fill-opacity="0.5"/>
<path d="M120.346 41.1272C122.771 41.1272 124.736 39.1522 124.736 36.716C124.736 34.2799 122.771 32.3049 120.346 32.3049C117.921 32.3049 115.956 34.2799 115.956 36.716C115.956 39.1522 117.921 41.1272 120.346 41.1272Z" fill="#DB2E2A" fill-opacity="0.5"/>
<path d="M136.917 41.1272C139.342 41.1272 141.308 39.1522 141.308 36.716C141.308 34.2799 139.342 32.3049 136.917 32.3049C134.493 32.3049 132.527 34.2799 132.527 36.716C132.527 39.1522 134.493 41.1272 136.917 41.1272Z" fill="#DB2E2A" fill-opacity="0.5"/>
<path d="M153.489 41.1272C155.913 41.1272 157.879 39.1522 157.879 36.716C157.879 34.2799 155.913 32.3049 153.489 32.3049C151.064 32.3049 149.098 34.2799 149.098 36.716C149.098 39.1522 151.064 41.1272 153.489 41.1272Z" fill="#DB2E2A" fill-opacity="0.5"/>
<path d="M170.06 41.1272C172.485 41.1272 174.45 39.1522 174.45 36.716C174.45 34.2799 172.485 32.3049 170.06 32.3049C167.635 32.3049 165.67 34.2799 165.67 36.716C165.67 39.1522 167.635 41.1272 170.06 41.1272Z" fill="#DB2E2A" fill-opacity="0.5"/>
<path d="M186.631 41.1272C189.056 41.1272 191.022 39.1522 191.022 36.716C191.022 34.2799 189.056 32.3049 186.631 32.3049C184.207 32.3049 182.241 34.2799 182.241 36.716C182.241 39.1522 184.207 41.1272 186.631 41.1272Z" fill="#DB2E2A" fill-opacity="0.5"/>
<path d="M4.39031 57.2796C6.81501 57.2796 8.78062 55.3047 8.78062 52.8685C8.78062 50.4323 6.81501 48.4574 4.39031 48.4574C1.96561 48.4574 0 50.4323 0 52.8685C0 55.3047 1.96561 57.2796 4.39031 57.2796Z" fill="#DB2E2A" fill-opacity="0.5"/>
<path d="M20.9616 57.2796C23.3863 57.2796 25.3519 55.3047 25.3519 52.8685C25.3519 50.4323 23.3863 48.4574 20.9616 48.4574C18.5369 48.4574 16.5713 50.4323 16.5713 52.8685C16.5713 55.3047 18.5369 57.2796 20.9616 57.2796Z" fill="#DB2E2A" fill-opacity="0.5"/>
<path d="M37.5114 57.2796C39.9361 57.2796 41.9017 55.3047 41.9017 52.8685C41.9017 50.4323 39.9361 48.4574 37.5114 48.4574C35.0867 48.4574 33.1211 50.4323 33.1211 52.8685C33.1211 55.3047 35.0867 57.2796 37.5114 57.2796Z" fill="#DB2E2A" fill-opacity="0.5"/>
<path d="M54.0827 57.2796C56.5074 57.2796 58.473 55.3047 58.473 52.8685C58.473 50.4323 56.5074 48.4574 54.0827 48.4574C51.658 48.4574 49.6924 50.4323 49.6924 52.8685C49.6924 55.3047 51.658 57.2796 54.0827 57.2796Z" fill="#DB2E2A" fill-opacity="0.5"/>
<path d="M70.654 57.2796C73.0787 57.2796 75.0443 55.3047 75.0443 52.8685C75.0443 50.4323 73.0787 48.4574 70.654 48.4574C68.2293 48.4574 66.2637 50.4323 66.2637 52.8685C66.2637 55.3047 68.2293 57.2796 70.654 57.2796Z" fill="#DB2E2A" fill-opacity="0.5"/>
<path d="M87.225 57.2796C89.6497 57.2796 91.6153 55.3047 91.6153 52.8685C91.6153 50.4323 89.6497 48.4574 87.225 48.4574C84.8003 48.4574 82.8347 50.4323 82.8347 52.8685C82.8347 55.3047 84.8003 57.2796 87.225 57.2796Z" fill="#DB2E2A" fill-opacity="0.5"/>
<path d="M103.796 57.2796C106.221 57.2796 108.187 55.3047 108.187 52.8685C108.187 50.4323 106.221 48.4574 103.796 48.4574C101.372 48.4574 99.406 50.4323 99.406 52.8685C99.406 55.3047 101.372 57.2796 103.796 57.2796Z" fill="#DB2E2A" fill-opacity="0.5"/>
<path d="M120.346 57.2796C122.771 57.2796 124.736 55.3047 124.736 52.8685C124.736 50.4323 122.771 48.4574 120.346 48.4574C117.921 48.4574 115.956 50.4323 115.956 52.8685C115.956 55.3047 117.921 57.2796 120.346 57.2796Z" fill="#DB2E2A" fill-opacity="0.5"/>
<path d="M136.917 57.2796C139.342 57.2796 141.308 55.3047 141.308 52.8685C141.308 50.4323 139.342 48.4574 136.917 48.4574C134.493 48.4574 132.527 50.4323 132.527 52.8685C132.527 55.3047 134.493 57.2796 136.917 57.2796Z" fill="#DB2E2A" fill-opacity="0.5"/>
<path d="M153.489 57.2796C155.913 57.2796 157.879 55.3047 157.879 52.8685C157.879 50.4323 155.913 48.4574 153.489 48.4574C151.064 48.4574 149.098 50.4323 149.098 52.8685C149.098 55.3047 151.064 57.2796 153.489 57.2796Z" fill="#DB2E2A" fill-opacity="0.5"/>
<path d="M170.06 57.2796C172.485 57.2796 174.45 55.3047 174.45 52.8685C174.45 50.4323 172.485 48.4574 170.06 48.4574C167.635 48.4574 165.67 50.4323 165.67 52.8685C165.67 55.3047 167.635 57.2796 170.06 57.2796Z" fill="#DB2E2A" fill-opacity="0.5"/>
<path d="M186.631 57.2796C189.056 57.2796 191.022 55.3047 191.022 52.8685C191.022 50.4323 189.056 48.4574 186.631 48.4574C184.207 48.4574 182.241 50.4323 182.241 52.8685C182.241 55.3047 184.207 57.2796 186.631 57.2796Z" fill="#DB2E2A" fill-opacity="0.5"/>
<path d="M4.39031 73.4321C6.81501 73.4321 8.78062 71.4572 8.78062 69.021C8.78062 66.5848 6.81501 64.6099 4.39031 64.6099C1.96561 64.6099 0 66.5848 0 69.021C0 71.4572 1.96561 73.4321 4.39031 73.4321Z" fill="#DB2E2A" fill-opacity="0.5"/>
<path d="M20.9616 73.4321C23.3863 73.4321 25.3519 71.4572 25.3519 69.021C25.3519 66.5848 23.3863 64.6099 20.9616 64.6099C18.5369 64.6099 16.5713 66.5848 16.5713 69.021C16.5713 71.4572 18.5369 73.4321 20.9616 73.4321Z" fill="#DB2E2A" fill-opacity="0.5"/>
<path d="M37.5114 73.4321C39.9361 73.4321 41.9017 71.4572 41.9017 69.021C41.9017 66.5848 39.9361 64.6099 37.5114 64.6099C35.0867 64.6099 33.1211 66.5848 33.1211 69.021C33.1211 71.4572 35.0867 73.4321 37.5114 73.4321Z" fill="#DB2E2A" fill-opacity="0.5"/>
<path d="M54.0827 73.4321C56.5074 73.4321 58.473 71.4572 58.473 69.021C58.473 66.5848 56.5074 64.6099 54.0827 64.6099C51.658 64.6099 49.6924 66.5848 49.6924 69.021C49.6924 71.4572 51.658 73.4321 54.0827 73.4321Z" fill="#DB2E2A" fill-opacity="0.5"/>
<path d="M70.654 73.4321C73.0787 73.4321 75.0443 71.4572 75.0443 69.021C75.0443 66.5848 73.0787 64.6099 70.654 64.6099C68.2293 64.6099 66.2637 66.5848 66.2637 69.021C66.2637 71.4572 68.2293 73.4321 70.654 73.4321Z" fill="#DB2E2A" fill-opacity="0.5"/>
<path d="M87.225 73.4321C89.6497 73.4321 91.6153 71.4572 91.6153 69.021C91.6153 66.5848 89.6497 64.6099 87.225 64.6099C84.8003 64.6099 82.8347 66.5848 82.8347 69.021C82.8347 71.4572 84.8003 73.4321 87.225 73.4321Z" fill="#DB2E2A" fill-opacity="0.5"/>
<path d="M103.796 73.4321C106.221 73.4321 108.187 71.4572 108.187 69.021C108.187 66.5848 106.221 64.6099 103.796 64.6099C101.372 64.6099 99.406 66.5848 99.406 69.021C99.406 71.4572 101.372 73.4321 103.796 73.4321Z" fill="#DB2E2A" fill-opacity="0.5"/>
<path d="M120.346 73.4321C122.771 73.4321 124.736 71.4572 124.736 69.021C124.736 66.5848 122.771 64.6099 120.346 64.6099C117.921 64.6099 115.956 66.5848 115.956 69.021C115.956 71.4572 117.921 73.4321 120.346 73.4321Z" fill="#DB2E2A" fill-opacity="0.5"/>
<path d="M136.917 73.4321C139.342 73.4321 141.308 71.4572 141.308 69.021C141.308 66.5848 139.342 64.6099 136.917 64.6099C134.493 64.6099 132.527 66.5848 132.527 69.021C132.527 71.4572 134.493 73.4321 136.917 73.4321Z" fill="#DB2E2A" fill-opacity="0.5"/>
<path d="M153.489 73.4321C155.913 73.4321 157.879 71.4572 157.879 69.021C157.879 66.5848 155.913 64.6099 153.489 64.6099C151.064 64.6099 149.098 66.5848 149.098 69.021C149.098 71.4572 151.064 73.4321 153.489 73.4321Z" fill="#DB2E2A" fill-opacity="0.5"/>
<path d="M170.06 73.4321C172.485 73.4321 174.45 71.4572 174.45 69.021C174.45 66.5848 172.485 64.6099 170.06 64.6099C167.635 64.6099 165.67 66.5848 165.67 69.021C165.67 71.4572 167.635 73.4321 170.06 73.4321Z" fill="#DB2E2A" fill-opacity="0.5"/>
<path d="M186.631 73.4321C189.056 73.4321 191.022 71.4572 191.022 69.021C191.022 66.5848 189.056 64.6099 186.631 64.6099C184.207 64.6099 182.241 66.5848 182.241 69.021C182.241 71.4572 184.207 73.4321 186.631 73.4321Z" fill="#DB2E2A" fill-opacity="0.5"/>
<path d="M4.39031 89.6062C6.81501 89.6062 8.78062 87.6312 8.78062 85.1951C8.78062 82.7589 6.81501 80.7839 4.39031 80.7839C1.96561 80.7839 0 82.7589 0 85.1951C0 87.6312 1.96561 89.6062 4.39031 89.6062Z" fill="#DB2E2A" fill-opacity="0.5"/>
<path d="M20.9616 89.6062C23.3863 89.6062 25.3519 87.6312 25.3519 85.1951C25.3519 82.7589 23.3863 80.7839 20.9616 80.7839C18.5369 80.7839 16.5713 82.7589 16.5713 85.1951C16.5713 87.6312 18.5369 89.6062 20.9616 89.6062Z" fill="#DB2E2A" fill-opacity="0.5"/>
<path d="M37.5114 89.6062C39.9361 89.6062 41.9017 87.6312 41.9017 85.1951C41.9017 82.7589 39.9361 80.7839 37.5114 80.7839C35.0867 80.7839 33.1211 82.7589 33.1211 85.1951C33.1211 87.6312 35.0867 89.6062 37.5114 89.6062Z" fill="#DB2E2A" fill-opacity="0.5"/>
<path d="M54.0827 89.6062C56.5074 89.6062 58.473 87.6312 58.473 85.1951C58.473 82.7589 56.5074 80.7839 54.0827 80.7839C51.658 80.7839 49.6924 82.7589 49.6924 85.1951C49.6924 87.6312 51.658 89.6062 54.0827 89.6062Z" fill="#DB2E2A" fill-opacity="0.5"/>
<path d="M70.654 89.6062C73.0787 89.6062 75.0443 87.6312 75.0443 85.1951C75.0443 82.7589 73.0787 80.7839 70.654 80.7839C68.2293 80.7839 66.2637 82.7589 66.2637 85.1951C66.2637 87.6312 68.2293 89.6062 70.654 89.6062Z" fill="#DB2E2A" fill-opacity="0.5"/>
<path d="M87.225 89.6062C89.6497 89.6062 91.6153 87.6312 91.6153 85.1951C91.6153 82.7589 89.6497 80.7839 87.225 80.7839C84.8003 80.7839 82.8347 82.7589 82.8347 85.1951C82.8347 87.6312 84.8003 89.6062 87.225 89.6062Z" fill="#DB2E2A" fill-opacity="0.5"/>
<path d="M103.796 89.6062C106.221 89.6062 108.187 87.6312 108.187 85.1951C108.187 82.7589 106.221 80.7839 103.796 80.7839C101.372 80.7839 99.406 82.7589 99.406 85.1951C99.406 87.6312 101.372 89.6062 103.796 89.6062Z" fill="#DB2E2A" fill-opacity="0.5"/>
<path d="M120.346 89.6062C122.771 89.6062 124.736 87.6312 124.736 85.1951C124.736 82.7589 122.771 80.7839 120.346 80.7839C117.921 80.7839 115.956 82.7589 115.956 85.1951C115.956 87.6312 117.921 89.6062 120.346 89.6062Z" fill="#DB2E2A" fill-opacity="0.5"/>
<path d="M136.917 89.6062C139.342 89.6062 141.308 87.6312 141.308 85.1951C141.308 82.7589 139.342 80.7839 136.917 80.7839C134.493 80.7839 132.527 82.7589 132.527 85.1951C132.527 87.6312 134.493 89.6062 136.917 89.6062Z" fill="#DB2E2A" fill-opacity="0.5"/>
<path d="M153.489 89.6062C155.913 89.6062 157.879 87.6312 157.879 85.1951C157.879 82.7589 155.913 80.7839 153.489 80.7839C151.064 80.7839 149.098 82.7589 149.098 85.1951C149.098 87.6312 151.064 89.6062 153.489 89.6062Z" fill="#DB2E2A" fill-opacity="0.5"/>
<path d="M170.06 89.6062C172.485 89.6062 174.45 87.6312 174.45 85.1951C174.45 82.7589 172.485 80.7839 170.06 80.7839C167.635 80.7839 165.67 82.7589 165.67 85.1951C165.67 87.6312 167.635 89.6062 170.06 89.6062Z" fill="#DB2E2A" fill-opacity="0.5"/>
<path d="M186.631 89.6062C189.056 89.6062 191.022 87.6312 191.022 85.1951C191.022 82.7589 189.056 80.7839 186.631 80.7839C184.207 80.7839 182.241 82.7589 182.241 85.1951C182.241 87.6312 184.207 89.6062 186.631 89.6062Z" fill="#DB2E2A" fill-opacity="0.5"/>
<path d="M4.39031 105.759C6.81501 105.759 8.78062 103.784 8.78062 101.348C8.78062 98.9113 6.81501 96.9364 4.39031 96.9364C1.96561 96.9364 0 98.9113 0 101.348C0 103.784 1.96561 105.759 4.39031 105.759Z" fill="#DB2E2A" fill-opacity="0.5"/>
<path d="M20.9616 105.759C23.3863 105.759 25.3519 103.784 25.3519 101.348C25.3519 98.9113 23.3863 96.9364 20.9616 96.9364C18.5369 96.9364 16.5713 98.9113 16.5713 101.348C16.5713 103.784 18.5369 105.759 20.9616 105.759Z" fill="#DB2E2A" fill-opacity="0.5"/>
<path d="M37.5114 105.759C39.9361 105.759 41.9017 103.784 41.9017 101.348C41.9017 98.9113 39.9361 96.9364 37.5114 96.9364C35.0867 96.9364 33.1211 98.9113 33.1211 101.348C33.1211 103.784 35.0867 105.759 37.5114 105.759Z" fill="#DB2E2A" fill-opacity="0.5"/>
<path d="M54.0827 105.759C56.5074 105.759 58.473 103.784 58.473 101.348C58.473 98.9113 56.5074 96.9364 54.0827 96.9364C51.658 96.9364 49.6924 98.9113 49.6924 101.348C49.6924 103.784 51.658 105.759 54.0827 105.759Z" fill="#DB2E2A" fill-opacity="0.5"/>
<path d="M70.654 105.759C73.0787 105.759 75.0443 103.784 75.0443 101.348C75.0443 98.9113 73.0787 96.9364 70.654 96.9364C68.2293 96.9364 66.2637 98.9113 66.2637 101.348C66.2637 103.784 68.2293 105.759 70.654 105.759Z" fill="#DB2E2A" fill-opacity="0.5"/>
<path d="M87.225 105.759C89.6497 105.759 91.6153 103.784 91.6153 101.348C91.6153 98.9113 89.6497 96.9364 87.225 96.9364C84.8003 96.9364 82.8347 98.9113 82.8347 101.348C82.8347 103.784 84.8003 105.759 87.225 105.759Z" fill="#DB2E2A" fill-opacity="0.5"/>
<path d="M103.796 105.759C106.221 105.759 108.187 103.784 108.187 101.348C108.187 98.9113 106.221 96.9364 103.796 96.9364C101.372 96.9364 99.406 98.9113 99.406 101.348C99.406 103.784 101.372 105.759 103.796 105.759Z" fill="#DB2E2A" fill-opacity="0.5"/>
<path d="M120.346 105.759C122.771 105.759 124.736 103.784 124.736 101.348C124.736 98.9113 122.771 96.9364 120.346 96.9364C117.921 96.9364 115.956 98.9113 115.956 101.348C115.956 103.784 117.921 105.759 120.346 105.759Z" fill="#DB2E2A" fill-opacity="0.5"/>
<path d="M136.917 105.759C139.342 105.759 141.308 103.784 141.308 101.348C141.308 98.9113 139.342 96.9364 136.917 96.9364C134.493 96.9364 132.527 98.9113 132.527 101.348C132.527 103.784 134.493 105.759 136.917 105.759Z" fill="#DB2E2A" fill-opacity="0.5"/>
<path d="M153.489 105.759C155.913 105.759 157.879 103.784 157.879 101.348C157.879 98.9113 155.913 96.9364 153.489 96.9364C151.064 96.9364 149.098 98.9113 149.098 101.348C149.098 103.784 151.064 105.759 153.489 105.759Z" fill="#DB2E2A" fill-opacity="0.5"/>
<path d="M170.06 105.759C172.485 105.759 174.45 103.784 174.45 101.348C174.45 98.9113 172.485 96.9364 170.06 96.9364C167.635 96.9364 165.67 98.9113 165.67 101.348C165.67 103.784 167.635 105.759 170.06 105.759Z" fill="#DB2E2A" fill-opacity="0.5"/>
<path d="M186.631 105.759C189.056 105.759 191.022 103.784 191.022 101.348C191.022 98.9113 189.056 96.9364 186.631 96.9364C184.207 96.9364 182.241 98.9113 182.241 101.348C182.241 103.784 184.207 105.759 186.631 105.759Z" fill="#DB2E2A" fill-opacity="0.5"/>
<path d="M4.39031 121.911C6.81501 121.911 8.78062 119.936 8.78062 117.5C8.78062 115.064 6.81501 113.089 4.39031 113.089C1.96561 113.089 0 115.064 0 117.5C0 119.936 1.96561 121.911 4.39031 121.911Z" fill="#DB2E2A" fill-opacity="0.5"/>
<path d="M20.9616 121.911C23.3863 121.911 25.3519 119.936 25.3519 117.5C25.3519 115.064 23.3863 113.089 20.9616 113.089C18.5369 113.089 16.5713 115.064 16.5713 117.5C16.5713 119.936 18.5369 121.911 20.9616 121.911Z" fill="#DB2E2A" fill-opacity="0.5"/>
<path d="M37.5114 121.911C39.9361 121.911 41.9017 119.936 41.9017 117.5C41.9017 115.064 39.9361 113.089 37.5114 113.089C35.0867 113.089 33.1211 115.064 33.1211 117.5C33.1211 119.936 35.0867 121.911 37.5114 121.911Z" fill="#DB2E2A" fill-opacity="0.5"/>
<path d="M54.0827 121.911C56.5074 121.911 58.473 119.936 58.473 117.5C58.473 115.064 56.5074 113.089 54.0827 113.089C51.658 113.089 49.6924 115.064 49.6924 117.5C49.6924 119.936 51.658 121.911 54.0827 121.911Z" fill="#DB2E2A" fill-opacity="0.5"/>
<path d="M70.654 121.911C73.0787 121.911 75.0443 119.936 75.0443 117.5C75.0443 115.064 73.0787 113.089 70.654 113.089C68.2293 113.089 66.2637 115.064 66.2637 117.5C66.2637 119.936 68.2293 121.911 70.654 121.911Z" fill="#DB2E2A" fill-opacity="0.5"/>
<path d="M87.225 121.911C89.6497 121.911 91.6153 119.936 91.6153 117.5C91.6153 115.064 89.6497 113.089 87.225 113.089C84.8003 113.089 82.8347 115.064 82.8347 117.5C82.8347 119.936 84.8003 121.911 87.225 121.911Z" fill="#DB2E2A" fill-opacity="0.5"/>
<path d="M103.796 121.911C106.221 121.911 108.187 119.936 108.187 117.5C108.187 115.064 106.221 113.089 103.796 113.089C101.372 113.089 99.406 115.064 99.406 117.5C99.406 119.936 101.372 121.911 103.796 121.911Z" fill="#DB2E2A" fill-opacity="0.5"/>
<path d="M120.346 121.911C122.771 121.911 124.736 119.936 124.736 117.5C124.736 115.064 122.771 113.089 120.346 113.089C117.921 113.089 115.956 115.064 115.956 117.5C115.956 119.936 117.921 121.911 120.346 121.911Z" fill="#DB2E2A" fill-opacity="0.5"/>
<path d="M136.917 121.911C139.342 121.911 141.308 119.936 141.308 117.5C141.308 115.064 139.342 113.089 136.917 113.089C134.493 113.089 132.527 115.064 132.527 117.5C132.527 119.936 134.493 121.911 136.917 121.911Z" fill="#DB2E2A" fill-opacity="0.5"/>
<path d="M153.489 121.911C155.913 121.911 157.879 119.936 157.879 117.5C157.879 115.064 155.913 113.089 153.489 113.089C151.064 113.089 149.098 115.064 149.098 117.5C149.098 119.936 151.064 121.911 153.489 121.911Z" fill="#DB2E2A" fill-opacity="0.5"/>
<path d="M170.06 121.911C172.485 121.911 174.45 119.936 174.45 117.5C174.45 115.064 172.485 113.089 170.06 113.089C167.635 113.089 165.67 115.064 165.67 117.5C165.67 119.936 167.635 121.911 170.06 121.911Z" fill="#DB2E2A" fill-opacity="0.5"/>
<path d="M186.631 121.911C189.056 121.911 191.022 119.936 191.022 117.5C191.022 115.064 189.056 113.089 186.631 113.089C184.207 113.089 182.241 115.064 182.241 117.5C182.241 119.936 184.207 121.911 186.631 121.911Z" fill="#DB2E2A" fill-opacity="0.5"/>
<path d="M4.39031 138.064C6.81501 138.064 8.78062 136.089 8.78062 133.652C8.78062 131.216 6.81501 129.241 4.39031 129.241C1.96561 129.241 0 131.216 0 133.652C0 136.089 1.96561 138.064 4.39031 138.064Z" fill="#DB2E2A" fill-opacity="0.5"/>
<path d="M20.9616 138.064C23.3863 138.064 25.3519 136.089 25.3519 133.652C25.3519 131.216 23.3863 129.241 20.9616 129.241C18.5369 129.241 16.5713 131.216 16.5713 133.652C16.5713 136.089 18.5369 138.064 20.9616 138.064Z" fill="#DB2E2A" fill-opacity="0.5"/>
<path d="M37.5114 138.064C39.9361 138.064 41.9017 136.089 41.9017 133.652C41.9017 131.216 39.9361 129.241 37.5114 129.241C35.0867 129.241 33.1211 131.216 33.1211 133.652C33.1211 136.089 35.0867 138.064 37.5114 138.064Z" fill="#DB2E2A" fill-opacity="0.5"/>
<path d="M54.0827 138.064C56.5074 138.064 58.473 136.089 58.473 133.652C58.473 131.216 56.5074 129.241 54.0827 129.241C51.658 129.241 49.6924 131.216 49.6924 133.652C49.6924 136.089 51.658 138.064 54.0827 138.064Z" fill="#DB2E2A" fill-opacity="0.5"/>
<path d="M70.654 138.064C73.0787 138.064 75.0443 136.089 75.0443 133.652C75.0443 131.216 73.0787 129.241 70.654 129.241C68.2293 129.241 66.2637 131.216 66.2637 133.652C66.2637 136.089 68.2293 138.064 70.654 138.064Z" fill="#DB2E2A" fill-opacity="0.5"/>
<path d="M87.225 138.064C89.6497 138.064 91.6153 136.089 91.6153 133.652C91.6153 131.216 89.6497 129.241 87.225 129.241C84.8003 129.241 82.8347 131.216 82.8347 133.652C82.8347 136.089 84.8003 138.064 87.225 138.064Z" fill="#DB2E2A" fill-opacity="0.5"/>
<path d="M103.796 138.064C106.221 138.064 108.187 136.089 108.187 133.652C108.187 131.216 106.221 129.241 103.796 129.241C101.372 129.241 99.406 131.216 99.406 133.652C99.406 136.089 101.372 138.064 103.796 138.064Z" fill="#DB2E2A" fill-opacity="0.5"/>
<path d="M120.346 138.064C122.771 138.064 124.736 136.089 124.736 133.652C124.736 131.216 122.771 129.241 120.346 129.241C117.921 129.241 115.956 131.216 115.956 133.652C115.956 136.089 117.921 138.064 120.346 138.064Z" fill="#DB2E2A" fill-opacity="0.5"/>
<path d="M136.917 138.064C139.342 138.064 141.308 136.089 141.308 133.652C141.308 131.216 139.342 129.241 136.917 129.241C134.493 129.241 132.527 131.216 132.527 133.652C132.527 136.089 134.493 138.064 136.917 138.064Z" fill="#DB2E2A" fill-opacity="0.5"/>
<path d="M153.489 138.064C155.913 138.064 157.879 136.089 157.879 133.652C157.879 131.216 155.913 129.241 153.489 129.241C151.064 129.241 149.098 131.216 149.098 133.652C149.098 136.089 151.064 138.064 153.489 138.064Z" fill="#DB2E2A" fill-opacity="0.5"/>
<path d="M170.06 138.064C172.485 138.064 174.45 136.089 174.45 133.652C174.45 131.216 172.485 129.241 170.06 129.241C167.635 129.241 165.67 131.216 165.67 133.652C165.67 136.089 167.635 138.064 170.06 138.064Z" fill="#DB2E2A" fill-opacity="0.5"/>
<path d="M186.631 138.064C189.056 138.064 191.022 136.089 191.022 133.652C191.022 131.216 189.056 129.241 186.631 129.241C184.207 129.241 182.241 131.216 182.241 133.652C182.241 136.089 184.207 138.064 186.631 138.064Z" fill="#DB2E2A" fill-opacity="0.5"/>
<path d="M4.39031 154.216C6.81501 154.216 8.78062 152.241 8.78062 149.805C8.78062 147.369 6.81501 145.394 4.39031 145.394C1.96561 145.394 0 147.369 0 149.805C0 152.241 1.96561 154.216 4.39031 154.216Z" fill="#DB2E2A" fill-opacity="0.5"/>
<path d="M20.9616 154.216C23.3863 154.216 25.3519 152.241 25.3519 149.805C25.3519 147.369 23.3863 145.394 20.9616 145.394C18.5369 145.394 16.5713 147.369 16.5713 149.805C16.5713 152.241 18.5369 154.216 20.9616 154.216Z" fill="#DB2E2A" fill-opacity="0.5"/>
<path d="M37.5114 154.216C39.9361 154.216 41.9017 152.241 41.9017 149.805C41.9017 147.369 39.9361 145.394 37.5114 145.394C35.0867 145.394 33.1211 147.369 33.1211 149.805C33.1211 152.241 35.0867 154.216 37.5114 154.216Z" fill="#DB2E2A" fill-opacity="0.5"/>
<path d="M54.0827 154.216C56.5074 154.216 58.473 152.241 58.473 149.805C58.473 147.369 56.5074 145.394 54.0827 145.394C51.658 145.394 49.6924 147.369 49.6924 149.805C49.6924 152.241 51.658 154.216 54.0827 154.216Z" fill="#DB2E2A" fill-opacity="0.5"/>
<path d="M70.654 154.216C73.0787 154.216 75.0443 152.241 75.0443 149.805C75.0443 147.369 73.0787 145.394 70.654 145.394C68.2293 145.394 66.2637 147.369 66.2637 149.805C66.2637 152.241 68.2293 154.216 70.654 154.216Z" fill="#DB2E2A" fill-opacity="0.5"/>
<path d="M87.225 154.216C89.6497 154.216 91.6153 152.241 91.6153 149.805C91.6153 147.369 89.6497 145.394 87.225 145.394C84.8003 145.394 82.8347 147.369 82.8347 149.805C82.8347 152.241 84.8003 154.216 87.225 154.216Z" fill="#DB2E2A" fill-opacity="0.5"/>
<path d="M103.796 154.216C106.221 154.216 108.187 152.241 108.187 149.805C108.187 147.369 106.221 145.394 103.796 145.394C101.372 145.394 99.406 147.369 99.406 149.805C99.406 152.241 101.372 154.216 103.796 154.216Z" fill="#DB2E2A" fill-opacity="0.5"/>
<path d="M120.346 154.216C122.771 154.216 124.736 152.241 124.736 149.805C124.736 147.369 122.771 145.394 120.346 145.394C117.921 145.394 115.956 147.369 115.956 149.805C115.956 152.241 117.921 154.216 120.346 154.216Z" fill="#DB2E2A" fill-opacity="0.5"/>
<path d="M136.917 154.216C139.342 154.216 141.308 152.241 141.308 149.805C141.308 147.369 139.342 145.394 136.917 145.394C134.493 145.394 132.527 147.369 132.527 149.805C132.527 152.241 134.493 154.216 136.917 154.216Z" fill="#DB2E2A" fill-opacity="0.5"/>
<path d="M153.489 154.216C155.913 154.216 157.879 152.241 157.879 149.805C157.879 147.369 155.913 145.394 153.489 145.394C151.064 145.394 149.098 147.369 149.098 149.805C149.098 152.241 151.064 154.216 153.489 154.216Z" fill="#DB2E2A" fill-opacity="0.5"/>
<path d="M170.06 154.216C172.485 154.216 174.45 152.241 174.45 149.805C174.45 147.369 172.485 145.394 170.06 145.394C167.635 145.394 165.67 147.369 165.67 149.805C165.67 152.241 167.635 154.216 170.06 154.216Z" fill="#DB2E2A" fill-opacity="0.5"/>
<path d="M186.631 154.216C189.056 154.216 191.022 152.241 191.022 149.805C191.022 147.369 189.056 145.394 186.631 145.394C184.207 145.394 182.241 147.369 182.241 149.805C182.241 152.241 184.207 154.216 186.631 154.216Z" fill="#DB2E2A" fill-opacity="0.5"/>
<path d="M4.39031 170.368C6.81501 170.368 8.78062 168.394 8.78062 165.957C8.78062 163.521 6.81501 161.546 4.39031 161.546C1.96561 161.546 0 163.521 0 165.957C0 168.394 1.96561 170.368 4.39031 170.368Z" fill="#DB2E2A" fill-opacity="0.5"/>
<path d="M20.9616 170.368C23.3863 170.368 25.3519 168.394 25.3519 165.957C25.3519 163.521 23.3863 161.546 20.9616 161.546C18.5369 161.546 16.5713 163.521 16.5713 165.957C16.5713 168.394 18.5369 170.368 20.9616 170.368Z" fill="#DB2E2A" fill-opacity="0.5"/>
<path d="M37.5114 170.368C39.9361 170.368 41.9017 168.394 41.9017 165.957C41.9017 163.521 39.9361 161.546 37.5114 161.546C35.0867 161.546 33.1211 163.521 33.1211 165.957C33.1211 168.394 35.0867 170.368 37.5114 170.368Z" fill="#DB2E2A" fill-opacity="0.5"/>
<path d="M54.0827 170.368C56.5074 170.368 58.473 168.394 58.473 165.957C58.473 163.521 56.5074 161.546 54.0827 161.546C51.658 161.546 49.6924 163.521 49.6924 165.957C49.6924 168.394 51.658 170.368 54.0827 170.368Z" fill="#DB2E2A" fill-opacity="0.5"/>
<path d="M70.654 170.368C73.0787 170.368 75.0443 168.394 75.0443 165.957C75.0443 163.521 73.0787 161.546 70.654 161.546C68.2293 161.546 66.2637 163.521 66.2637 165.957C66.2637 168.394 68.2293 170.368 70.654 170.368Z" fill="#DB2E2A" fill-opacity="0.5"/>
<path d="M87.225 170.368C89.6497 170.368 91.6153 168.394 91.6153 165.957C91.6153 163.521 89.6497 161.546 87.225 161.546C84.8003 161.546 82.8347 163.521 82.8347 165.957C82.8347 168.394 84.8003 170.368 87.225 170.368Z" fill="#DB2E2A" fill-opacity="0.5"/>
<path d="M103.796 170.368C106.221 170.368 108.187 168.394 108.187 165.957C108.187 163.521 106.221 161.546 103.796 161.546C101.372 161.546 99.406 163.521 99.406 165.957C99.406 168.394 101.372 170.368 103.796 170.368Z" fill="#DB2E2A" fill-opacity="0.5"/>
<path d="M120.346 170.368C122.771 170.368 124.736 168.394 124.736 165.957C124.736 163.521 122.771 161.546 120.346 161.546C117.921 161.546 115.956 163.521 115.956 165.957C115.956 168.394 117.921 170.368 120.346 170.368Z" fill="#DB2E2A" fill-opacity="0.5"/>
<path d="M136.917 170.368C139.342 170.368 141.308 168.394 141.308 165.957C141.308 163.521 139.342 161.546 136.917 161.546C134.493 161.546 132.527 163.521 132.527 165.957C132.527 168.394 134.493 170.368 136.917 170.368Z" fill="#DB2E2A" fill-opacity="0.5"/>
<path d="M153.489 170.368C155.913 170.368 157.879 168.394 157.879 165.957C157.879 163.521 155.913 161.546 153.489 161.546C151.064 161.546 149.098 163.521 149.098 165.957C149.098 168.394 151.064 170.368 153.489 170.368Z" fill="#DB2E2A" fill-opacity="0.5"/>
<path d="M170.06 170.368C172.485 170.368 174.45 168.394 174.45 165.957C174.45 163.521 172.485 161.546 170.06 161.546C167.635 161.546 165.67 163.521 165.67 165.957C165.67 168.394 167.635 170.368 170.06 170.368Z" fill="#DB2E2A" fill-opacity="0.5"/>
<path d="M186.631 170.368C189.056 170.368 191.022 168.394 191.022 165.957C191.022 163.521 189.056 161.546 186.631 161.546C184.207 161.546 182.241 163.521 182.241 165.957C182.241 168.394 184.207 170.368 186.631 170.368Z" fill="#DB2E2A" fill-opacity="0.5"/>
<path d="M4.39031 186.543C6.81501 186.543 8.78062 184.568 8.78062 182.132C8.78062 179.695 6.81501 177.72 4.39031 177.72C1.96561 177.72 0 179.695 0 182.132C0 184.568 1.96561 186.543 4.39031 186.543Z" fill="#DB2E2A" fill-opacity="0.5"/>
<path d="M20.9616 186.543C23.3863 186.543 25.3519 184.568 25.3519 182.132C25.3519 179.695 23.3863 177.72 20.9616 177.72C18.5369 177.72 16.5713 179.695 16.5713 182.132C16.5713 184.568 18.5369 186.543 20.9616 186.543Z" fill="#DB2E2A" fill-opacity="0.5"/>
<path d="M37.5114 186.543C39.9361 186.543 41.9017 184.568 41.9017 182.132C41.9017 179.695 39.9361 177.72 37.5114 177.72C35.0867 177.72 33.1211 179.695 33.1211 182.132C33.1211 184.568 35.0867 186.543 37.5114 186.543Z" fill="#DB2E2A" fill-opacity="0.5"/>
<path d="M54.0827 186.543C56.5074 186.543 58.473 184.568 58.473 182.132C58.473 179.695 56.5074 177.72 54.0827 177.72C51.658 177.72 49.6924 179.695 49.6924 182.132C49.6924 184.568 51.658 186.543 54.0827 186.543Z" fill="#DB2E2A" fill-opacity="0.5"/>
<path d="M70.654 186.543C73.0787 186.543 75.0443 184.568 75.0443 182.132C75.0443 179.695 73.0787 177.72 70.654 177.72C68.2293 177.72 66.2637 179.695 66.2637 182.132C66.2637 184.568 68.2293 186.543 70.654 186.543Z" fill="#DB2E2A" fill-opacity="0.5"/>
<path d="M87.225 186.543C89.6497 186.543 91.6153 184.568 91.6153 182.132C91.6153 179.695 89.6497 177.72 87.225 177.72C84.8003 177.72 82.8347 179.695 82.8347 182.132C82.8347 184.568 84.8003 186.543 87.225 186.543Z" fill="#DB2E2A" fill-opacity="0.5"/>
<path d="M103.796 186.543C106.221 186.543 108.187 184.568 108.187 182.132C108.187 179.695 106.221 177.72 103.796 177.72C101.372 177.72 99.406 179.695 99.406 182.132C99.406 184.568 101.372 186.543 103.796 186.543Z" fill="#DB2E2A" fill-opacity="0.5"/>
<path d="M120.346 186.543C122.771 186.543 124.736 184.568 124.736 182.132C124.736 179.695 122.771 177.72 120.346 177.72C117.921 177.72 115.956 179.695 115.956 182.132C115.956 184.568 117.921 186.543 120.346 186.543Z" fill="#DB2E2A" fill-opacity="0.5"/>
<path d="M136.917 186.543C139.342 186.543 141.308 184.568 141.308 182.132C141.308 179.695 139.342 177.72 136.917 177.72C134.493 177.72 132.527 179.695 132.527 182.132C132.527 184.568 134.493 186.543 136.917 186.543Z" fill="#DB2E2A" fill-opacity="0.5"/>
<path d="M153.489 186.543C155.913 186.543 157.879 184.568 157.879 182.132C157.879 179.695 155.913 177.72 153.489 177.72C151.064 177.72 149.098 179.695 149.098 182.132C149.098 184.568 151.064 186.543 153.489 186.543Z" fill="#DB2E2A" fill-opacity="0.5"/>
<path d="M170.06 186.543C172.485 186.543 174.45 184.568 174.45 182.132C174.45 179.695 172.485 177.72 170.06 177.72C167.635 177.72 165.67 179.695 165.67 182.132C165.67 184.568 167.635 186.543 170.06 186.543Z" fill="#DB2E2A" fill-opacity="0.5"/>
<path d="M186.631 186.543C189.056 186.543 191.022 184.568 191.022 182.132C191.022 179.695 189.056 177.72 186.631 177.72C184.207 177.72 182.241 179.695 182.241 182.132C182.241 184.568 184.207 186.543 186.631 186.543Z" fill="#DB2E2A" fill-opacity="0.5"/>
<path d="M4.39031 202.695C6.81501 202.695 8.78062 200.72 8.78062 198.284C8.78062 195.848 6.81501 193.873 4.39031 193.873C1.96561 193.873 0 195.848 0 198.284C0 200.72 1.96561 202.695 4.39031 202.695Z" fill="#DB2E2A" fill-opacity="0.5"/>
<path d="M20.9616 202.695C23.3863 202.695 25.3519 200.72 25.3519 198.284C25.3519 195.848 23.3863 193.873 20.9616 193.873C18.5369 193.873 16.5713 195.848 16.5713 198.284C16.5713 200.72 18.5369 202.695 20.9616 202.695Z" fill="#DB2E2A" fill-opacity="0.5"/>
<path d="M37.5114 202.695C39.9361 202.695 41.9017 200.72 41.9017 198.284C41.9017 195.848 39.9361 193.873 37.5114 193.873C35.0867 193.873 33.1211 195.848 33.1211 198.284C33.1211 200.72 35.0867 202.695 37.5114 202.695Z" fill="#DB2E2A" fill-opacity="0.5"/>
<path d="M54.0827 202.695C56.5074 202.695 58.473 200.72 58.473 198.284C58.473 195.848 56.5074 193.873 54.0827 193.873C51.658 193.873 49.6924 195.848 49.6924 198.284C49.6924 200.72 51.658 202.695 54.0827 202.695Z" fill="#DB2E2A" fill-opacity="0.5"/>
<path d="M70.654 202.695C73.0787 202.695 75.0443 200.72 75.0443 198.284C75.0443 195.848 73.0787 193.873 70.654 193.873C68.2293 193.873 66.2637 195.848 66.2637 198.284C66.2637 200.72 68.2293 202.695 70.654 202.695Z" fill="#DB2E2A" fill-opacity="0.5"/>
<path d="M87.225 202.695C89.6497 202.695 91.6153 200.72 91.6153 198.284C91.6153 195.848 89.6497 193.873 87.225 193.873C84.8003 193.873 82.8347 195.848 82.8347 198.284C82.8347 200.72 84.8003 202.695 87.225 202.695Z" fill="#DB2E2A" fill-opacity="0.5"/>
<path d="M103.796 202.695C106.221 202.695 108.187 200.72 108.187 198.284C108.187 195.848 106.221 193.873 103.796 193.873C101.372 193.873 99.406 195.848 99.406 198.284C99.406 200.72 101.372 202.695 103.796 202.695Z" fill="#DB2E2A" fill-opacity="0.5"/>
<path d="M120.346 202.695C122.771 202.695 124.736 200.72 124.736 198.284C124.736 195.848 122.771 193.873 120.346 193.873C117.921 193.873 115.956 195.848 115.956 198.284C115.956 200.72 117.921 202.695 120.346 202.695Z" fill="#DB2E2A" fill-opacity="0.5"/>
<path d="M136.917 202.695C139.342 202.695 141.308 200.72 141.308 198.284C141.308 195.848 139.342 193.873 136.917 193.873C134.493 193.873 132.527 195.848 132.527 198.284C132.527 200.72 134.493 202.695 136.917 202.695Z" fill="#DB2E2A" fill-opacity="0.5"/>
<path d="M153.489 202.695C155.913 202.695 157.879 200.72 157.879 198.284C157.879 195.848 155.913 193.873 153.489 193.873C151.064 193.873 149.098 195.848 149.098 198.284C149.098 200.72 151.064 202.695 153.489 202.695Z" fill="#DB2E2A" fill-opacity="0.5"/>
<path d="M170.06 202.695C172.485 202.695 174.45 200.72 174.45 198.284C174.45 195.848 172.485 193.873 170.06 193.873C167.635 193.873 165.67 195.848 165.67 198.284C165.67 200.72 167.635 202.695 170.06 202.695Z" fill="#DB2E2A" fill-opacity="0.5"/>
<path d="M186.631 202.695C189.056 202.695 191.022 200.72 191.022 198.284C191.022 195.848 189.056 193.873 186.631 193.873C184.207 193.873 182.241 195.848 182.241 198.284C182.241 200.72 184.207 202.695 186.631 202.695Z" fill="#DB2E2A" fill-opacity="0.5"/>
<path d="M4.39031 218.848C6.81501 218.848 8.78062 216.873 8.78062 214.436C8.78062 212 6.81501 210.025 4.39031 210.025C1.96561 210.025 0 212 0 214.436C0 216.873 1.96561 218.848 4.39031 218.848Z" fill="#DB2E2A" fill-opacity="0.5"/>
<path d="M20.9616 218.848C23.3863 218.848 25.3519 216.873 25.3519 214.436C25.3519 212 23.3863 210.025 20.9616 210.025C18.5369 210.025 16.5713 212 16.5713 214.436C16.5713 216.873 18.5369 218.848 20.9616 218.848Z" fill="#DB2E2A" fill-opacity="0.5"/>
<path d="M37.5114 218.848C39.9361 218.848 41.9017 216.873 41.9017 214.436C41.9017 212 39.9361 210.025 37.5114 210.025C35.0867 210.025 33.1211 212 33.1211 214.436C33.1211 216.873 35.0867 218.848 37.5114 218.848Z" fill="#DB2E2A" fill-opacity="0.5"/>
<path d="M54.0827 218.848C56.5074 218.848 58.473 216.873 58.473 214.436C58.473 212 56.5074 210.025 54.0827 210.025C51.658 210.025 49.6924 212 49.6924 214.436C49.6924 216.873 51.658 218.848 54.0827 218.848Z" fill="#DB2E2A" fill-opacity="0.5"/>
<path d="M70.654 218.848C73.0787 218.848 75.0443 216.873 75.0443 214.436C75.0443 212 73.0787 210.025 70.654 210.025C68.2293 210.025 66.2637 212 66.2637 214.436C66.2637 216.873 68.2293 218.848 70.654 218.848Z" fill="#DB2E2A" fill-opacity="0.5"/>
<path d="M87.225 218.848C89.6497 218.848 91.6153 216.873 91.6153 214.436C91.6153 212 89.6497 210.025 87.225 210.025C84.8003 210.025 82.8347 212 82.8347 214.436C82.8347 216.873 84.8003 218.848 87.225 218.848Z" fill="#DB2E2A" fill-opacity="0.5"/>
<path d="M103.796 218.848C106.221 218.848 108.187 216.873 108.187 214.436C108.187 212 106.221 210.025 103.796 210.025C101.372 210.025 99.406 212 99.406 214.436C99.406 216.873 101.372 218.848 103.796 218.848Z" fill="#DB2E2A" fill-opacity="0.5"/>
<path d="M120.346 218.848C122.771 218.848 124.736 216.873 124.736 214.436C124.736 212 122.771 210.025 120.346 210.025C117.921 210.025 115.956 212 115.956 214.436C115.956 216.873 117.921 218.848 120.346 218.848Z" fill="#DB2E2A" fill-opacity="0.5"/>
<path d="M136.917 218.848C139.342 218.848 141.308 216.873 141.308 214.436C141.308 212 139.342 210.025 136.917 210.025C134.493 210.025 132.527 212 132.527 214.436C132.527 216.873 134.493 218.848 136.917 218.848Z" fill="#DB2E2A" fill-opacity="0.5"/>
<path d="M153.489 218.848C155.913 218.848 157.879 216.873 157.879 214.436C157.879 212 155.913 210.025 153.489 210.025C151.064 210.025 149.098 212 149.098 214.436C149.098 216.873 151.064 218.848 153.489 218.848Z" fill="#DB2E2A" fill-opacity="0.5"/>
<path d="M170.06 218.848C172.485 218.848 174.45 216.873 174.45 214.436C174.45 212 172.485 210.025 170.06 210.025C167.635 210.025 165.67 212 165.67 214.436C165.67 216.873 167.635 218.848 170.06 218.848Z" fill="#DB2E2A" fill-opacity="0.5"/>
<path d="M186.631 218.848C189.056 218.848 191.022 216.873 191.022 214.436C191.022 212 189.056 210.025 186.631 210.025C184.207 210.025 182.241 212 182.241 214.436C182.241 216.873 184.207 218.848 186.631 218.848Z" fill="#DB2E2A" fill-opacity="0.5"/>
<path d="M4.39031 235C6.81501 235 8.78062 233.025 8.78062 230.589C8.78062 228.153 6.81501 226.178 4.39031 226.178C1.96561 226.178 0 228.153 0 230.589C0 233.025 1.96561 235 4.39031 235Z" fill="#DB2E2A" fill-opacity="0.5"/>
<path d="M20.9616 235C23.3863 235 25.3519 233.025 25.3519 230.589C25.3519 228.153 23.3863 226.178 20.9616 226.178C18.5369 226.178 16.5713 228.153 16.5713 230.589C16.5713 233.025 18.5369 235 20.9616 235Z" fill="#DB2E2A" fill-opacity="0.5"/>
<path d="M37.5114 235C39.9361 235 41.9017 233.025 41.9017 230.589C41.9017 228.153 39.9361 226.178 37.5114 226.178C35.0867 226.178 33.1211 228.153 33.1211 230.589C33.1211 233.025 35.0867 235 37.5114 235Z" fill="#DB2E2A" fill-opacity="0.5"/>
<path d="M54.0827 235C56.5074 235 58.473 233.025 58.473 230.589C58.473 228.153 56.5074 226.178 54.0827 226.178C51.658 226.178 49.6924 228.153 49.6924 230.589C49.6924 233.025 51.658 235 54.0827 235Z" fill="#DB2E2A" fill-opacity="0.5"/>
<path d="M70.654 235C73.0787 235 75.0443 233.025 75.0443 230.589C75.0443 228.153 73.0787 226.178 70.654 226.178C68.2293 226.178 66.2637 228.153 66.2637 230.589C66.2637 233.025 68.2293 235 70.654 235Z" fill="#DB2E2A" fill-opacity="0.5"/>
<path d="M87.225 235C89.6497 235 91.6153 233.025 91.6153 230.589C91.6153 228.153 89.6497 226.178 87.225 226.178C84.8003 226.178 82.8347 228.153 82.8347 230.589C82.8347 233.025 84.8003 235 87.225 235Z" fill="#DB2E2A" fill-opacity="0.5"/>
<path d="M103.796 235C106.221 235 108.187 233.025 108.187 230.589C108.187 228.153 106.221 226.178 103.796 226.178C101.372 226.178 99.406 228.153 99.406 230.589C99.406 233.025 101.372 235 103.796 235Z" fill="#DB2E2A" fill-opacity="0.5"/>
<path d="M120.346 235C122.771 235 124.736 233.025 124.736 230.589C124.736 228.153 122.771 226.178 120.346 226.178C117.921 226.178 115.956 228.153 115.956 230.589C115.956 233.025 117.921 235 120.346 235Z" fill="#DB2E2A" fill-opacity="0.5"/>
<path d="M136.917 235C139.342 235 141.308 233.025 141.308 230.589C141.308 228.153 139.342 226.178 136.917 226.178C134.493 226.178 132.527 228.153 132.527 230.589C132.527 233.025 134.493 235 136.917 235Z" fill="#DB2E2A" fill-opacity="0.5"/>
<path d="M153.489 235C155.913 235 157.879 233.025 157.879 230.589C157.879 228.153 155.913 226.178 153.489 226.178C151.064 226.178 149.098 228.153 149.098 230.589C149.098 233.025 151.064 235 153.489 235Z" fill="#DB2E2A" fill-opacity="0.5"/>
<path d="M170.06 235C172.485 235 174.45 233.025 174.45 230.589C174.45 228.153 172.485 226.178 170.06 226.178C167.635 226.178 165.67 228.153 165.67 230.589C165.67 233.025 167.635 235 170.06 235Z" fill="#DB2E2A" fill-opacity="0.5"/>
<path d="M186.631 235C189.056 235 191.022 233.025 191.022 230.589C191.022 228.153 189.056 226.178 186.631 226.178C184.207 226.178 182.241 228.153 182.241 230.589C182.241 233.025 184.207 235 186.631 235Z" fill="#DB2E2A" fill-opacity="0.5"/>
</svg>
