<svg width="101" height="62" viewBox="0 0 101 62" fill="none" xmlns="http://www.w3.org/2000/svg">
<g clip-path="url(#clip0_510_63)">
<path d="M57.1313 6.75089L55.9275 12.7205H48.8881L47.5108 19.4614H41.104L42.471 12.7205H35.4316L36.6355 6.75089H43.6851L45.0521 0H51.4692L50.0919 6.75089H57.1313Z" fill="#1741FF"/>
<path d="M36.7273 62C42.3617 62 46.9293 57.5156 46.9293 51.9838C46.9293 46.4521 42.3617 41.9677 36.7273 41.9677C31.0929 41.9677 26.5253 46.4521 26.5253 51.9838C26.5253 57.5156 31.0929 62 36.7273 62Z" fill="#1741FF"/>
<path d="M67.3333 62C72.9677 62 77.5353 57.5156 77.5353 51.9838C77.5353 46.4521 72.9677 41.9677 67.3333 41.9677C61.6989 41.9677 57.1313 46.4521 57.1313 51.9838C57.1313 57.5156 61.6989 62 67.3333 62Z" fill="#1741FF"/>
<path d="M24.4849 36.9596C30.1193 36.9596 34.6869 32.4752 34.6869 26.9435C34.6869 21.4117 30.1193 16.9273 24.4849 16.9273C18.8504 16.9273 14.2828 21.4117 14.2828 26.9435C14.2828 32.4752 18.8504 36.9596 24.4849 36.9596Z" fill="#1741FF"/>
<path d="M90.798 36.9596C96.4324 36.9596 101 32.4752 101 26.9435C101 21.4117 96.4324 16.9273 90.798 16.9273C85.1635 16.9273 80.5959 21.4117 80.5959 26.9435C80.5959 32.4752 85.1635 36.9596 90.798 36.9596Z" fill="#1741FF"/>
<path d="M67.3333 36.9596C72.9677 36.9596 77.5353 32.4752 77.5353 26.9435C77.5353 21.4117 72.9677 16.9273 67.3333 16.9273C61.6989 16.9273 57.1313 21.4117 57.1313 26.9435C57.1313 32.4752 61.6989 36.9596 67.3333 36.9596Z" fill="#1741FF"/>
<path d="M10.202 62C15.8364 62 20.404 57.5156 20.404 51.9838C20.404 46.4521 15.8364 41.9677 10.202 41.9677C4.5676 41.9677 0 46.4521 0 51.9838C0 57.5156 4.5676 62 10.202 62Z" fill="#1741FF"/>
</g>
<defs>
<clipPath id="clip0_510_63">
<rect width="101" height="62" fill="white"/>
</clipPath>
</defs>
</svg>
